<svg width="150" height="150" viewBox="0 0 150 150" fill="none" xmlns="http://www.w3.org/2000/svg">
<path d="M19.0621 30.0859C19.3816 30.0823 19.3816 30.0823 19.7075 30.0785C20.4135 30.0715 21.1193 30.0689 21.8253 30.067C22.315 30.0644 22.8047 30.0617 23.2944 30.059C24.3217 30.0541 25.3489 30.0519 26.3761 30.051C27.6938 30.0495 29.0111 30.0384 30.3287 30.025C31.3403 30.0163 32.3518 30.0142 33.3635 30.0139C33.8493 30.0127 34.3351 30.009 34.8209 30.0029C35.5 29.9951 36.1785 29.9964 36.8576 30.0001C37.2443 29.9986 37.6309 29.9971 38.0292 29.9956C38.9651 30.1757 38.9651 30.1757 39.5082 30.8222C39.8321 31.6114 40.088 32.3636 40.2934 33.1914C40.3696 33.4934 40.4458 33.7955 40.5243 34.1067C40.6425 34.5911 40.6425 34.5911 40.763 35.0852C40.8463 35.4192 40.9296 35.7532 41.0154 36.0973C41.1906 36.8018 41.3646 37.5066 41.5376 38.2116C41.803 39.293 42.072 40.3735 42.3417 41.4539C42.5115 42.1385 42.6811 42.8233 42.8504 43.5081C42.931 43.8322 43.0115 44.1563 43.0945 44.4902C43.2046 44.9405 43.2046 44.9405 43.317 45.3999C43.382 45.6642 43.447 45.9285 43.514 46.2007C43.6526 46.8749 43.6526 46.8749 43.6526 47.7538C44.0025 47.7526 44.0025 47.7526 44.3594 47.7514C50.0294 47.732 55.6993 47.7174 61.3694 47.7083C64.1113 47.7038 66.8532 47.6976 69.5952 47.6875C71.9846 47.6788 74.3739 47.6731 76.7633 47.6711C78.0289 47.67 79.2945 47.6673 80.5601 47.6609C81.7506 47.6549 82.9411 47.6531 84.1317 47.6544C84.5693 47.6542 85.0068 47.6524 85.4444 47.6491C86.0406 47.6447 86.6369 47.6463 87.2332 47.6481C87.5672 47.6473 87.9013 47.6465 88.2455 47.6457C89.0628 47.7538 89.0628 47.7538 89.6086 48.145C90.1351 48.9159 90.0737 49.4858 89.9417 50.3905C89.2822 51.0595 88.8759 51.2556 87.9393 51.3776C87.6163 51.3768 87.2934 51.376 86.9606 51.3751C86.5892 51.3764 86.2178 51.3776 85.8352 51.3788C85.4244 51.3757 85.0136 51.3725 84.6028 51.3692C84.1696 51.369 83.7365 51.3691 83.3034 51.3696C82.1279 51.3699 80.9526 51.3647 79.7772 51.3586C78.5486 51.3531 77.3201 51.3526 76.0916 51.3515C73.7654 51.3488 71.4392 51.3416 69.113 51.3328C66.4646 51.3229 63.8162 51.3181 61.1678 51.3137C55.72 51.3045 50.2723 51.289 44.8245 51.2695C44.8698 51.435 44.9151 51.6005 44.9618 51.7711C46.0628 55.7954 47.1631 59.8198 48.2624 63.8446C48.794 65.7909 49.3259 67.7371 49.8585 69.6831C50.3721 71.5597 50.8848 73.4365 51.3971 75.3135C51.5931 76.031 51.7894 76.7485 51.9859 77.4658C52.2602 78.4674 52.5336 79.4693 52.8068 80.4712C52.9301 80.9201 52.9301 80.9201 53.0558 81.378C53.1298 81.6499 53.2037 81.9219 53.2799 82.2021C53.3447 82.4392 53.4095 82.6763 53.4763 82.9206C53.6136 83.496 53.6136 83.496 53.6136 84.082C65.8919 84.082 78.1702 84.082 90.8206 84.082C90.8206 85.5321 90.8206 86.9823 90.8206 88.4765C97.2015 88.4765 103.582 88.4765 110.157 88.4765C110.253 87.8964 110.35 87.3163 110.45 86.7187C110.683 85.9035 110.978 85.1146 111.273 84.32C111.346 84.1117 111.419 83.9034 111.494 83.6888C111.921 82.534 112.254 81.7247 113.379 81.1523C114.367 81.2228 114.723 81.3245 115.43 82.0312C115.693 84.0341 114.932 85.7381 114.243 87.5941C114.122 87.928 114 88.2618 113.875 88.6058C113.618 89.3089 113.36 90.0114 113.1 90.7133C112.702 91.7904 112.31 92.8698 111.92 93.9496C111.669 94.6328 111.418 95.3158 111.167 95.9987C111.05 96.3225 110.933 96.6462 110.812 96.9798C110.7 97.2782 110.589 97.5765 110.474 97.8839C110.377 98.147 110.28 98.4102 110.181 98.6813C109.864 99.3163 109.864 99.3163 108.985 99.9023C108.259 99.96 107.566 99.9838 106.84 99.9806C106.62 99.9819 106.4 99.9833 106.174 99.9846C105.434 99.9883 104.695 99.9879 103.955 99.9874C103.426 99.9891 102.896 99.9911 102.367 99.9933C100.928 99.9985 99.4883 99.9999 98.0489 100C96.8483 100.001 95.6477 100.003 94.4471 100.005C91.6152 100.01 88.7834 100.011 85.9515 100.011C83.0277 100.01 80.104 100.017 77.1802 100.026C74.672 100.034 72.1637 100.037 69.6555 100.036C68.1565 100.036 66.6576 100.038 65.1587 100.044C63.7493 100.05 62.34 100.05 60.9306 100.046C60.4128 100.045 59.8951 100.046 59.3773 100.05C58.6714 100.054 57.9658 100.052 57.2599 100.047C57.0542 100.05 56.8485 100.053 56.6365 100.056C55.6532 100.042 55.1587 99.9652 54.3746 99.3508C53.8459 98.6499 53.6261 98.0907 53.3964 97.2444C53.3124 96.9427 53.2284 96.6409 53.1418 96.33C53.01 95.8329 53.01 95.8329 52.8754 95.3258C52.7784 94.9725 52.6813 94.6193 52.5813 94.2554C52.3122 93.2754 52.0481 92.2943 51.7848 91.3128C51.5022 90.2628 51.2152 89.214 50.9287 88.1651C50.4287 86.3318 49.9318 84.4976 49.4368 82.6629C48.6689 79.817 47.8955 76.9727 47.1217 74.1285C46.4587 71.691 45.7971 69.2531 45.1358 66.8151C45.0662 66.5586 44.9966 66.3021 44.9249 66.0378C43.3134 60.0951 41.7195 54.1481 40.1576 48.1921C40.058 47.8128 40.058 47.8128 39.9564 47.4258C36.6214 34.7177 36.6214 34.7177 36.6214 33.3984C36.3811 33.3997 36.1408 33.401 35.8932 33.4023C33.6301 33.414 31.3669 33.423 29.1037 33.4287C27.9401 33.4318 26.7765 33.4359 25.613 33.4426C24.4903 33.4489 23.3677 33.4524 22.245 33.454C21.8165 33.455 21.3879 33.4572 20.9593 33.4603C20.3596 33.4646 19.76 33.4651 19.1602 33.4649C18.8187 33.4662 18.4771 33.4675 18.1252 33.4688C17.2855 33.3984 17.2855 33.3984 16.4066 32.8124C16.315 31.787 16.315 31.787 16.4066 30.7616C17.2547 29.9135 17.8744 30.0955 19.0621 30.0859Z" fill="#1F243A"/>
<path d="M95.5687 38.8199C95.8845 38.8175 96.2004 38.815 96.5259 38.8125C96.8725 38.8158 97.2191 38.8191 97.5761 38.8225C97.9411 38.8214 98.306 38.8203 98.682 38.8191C99.6833 38.8173 100.684 38.8208 101.685 38.8267C102.732 38.8318 103.779 38.8308 104.826 38.8306C106.584 38.8311 108.341 38.8362 110.099 38.8442C112.133 38.8534 114.167 38.8565 116.2 38.8561C118.155 38.8557 120.11 38.8587 122.065 38.8636C122.898 38.8657 123.731 38.8667 124.563 38.867C125.725 38.8677 126.887 38.8734 128.048 38.8797C128.395 38.8794 128.743 38.8792 129.1 38.8789C129.573 38.8826 129.573 38.8826 130.055 38.8865C130.467 38.8879 130.467 38.8879 130.888 38.8894C131.543 38.9648 131.543 38.9648 132.129 39.5508C132.204 40.206 132.204 40.206 132.206 41.0389C132.208 41.354 132.21 41.6691 132.212 41.9937C132.211 42.3409 132.21 42.688 132.21 43.0457C132.211 43.4101 132.213 43.7746 132.214 44.15C132.218 45.1512 132.218 46.1524 132.218 47.1536C132.217 47.9887 132.219 48.8238 132.22 49.6589C132.223 51.6287 132.223 53.5986 132.222 55.5684C132.22 57.602 132.224 59.6356 132.23 61.6692C132.235 63.4139 132.237 65.1585 132.236 66.9032C132.235 67.9457 132.236 68.9883 132.24 70.0309C132.244 71.1932 132.242 72.3555 132.238 73.5179C132.241 73.8645 132.243 74.211 132.245 74.5681C132.243 74.884 132.241 75.1999 132.239 75.5254C132.239 75.8003 132.239 76.0753 132.239 76.3586C132.129 77.0508 132.129 77.0508 131.777 77.5784C131.07 78.05 130.599 78.041 129.751 78.0432C129.441 78.0461 129.131 78.049 128.811 78.052C128.471 78.0507 128.131 78.0494 127.781 78.048C127.422 78.05 127.064 78.0521 126.695 78.0541C125.712 78.0586 124.729 78.059 123.746 78.0574C122.925 78.0565 122.105 78.0582 121.284 78.06C119.348 78.0641 117.413 78.0637 115.477 78.0603C113.48 78.057 111.483 78.0611 109.485 78.069C107.771 78.0754 106.056 78.0774 104.342 78.0757C103.318 78.0747 102.294 78.0754 101.27 78.0804C100.128 78.0858 98.9859 78.0817 97.8439 78.0766C97.5043 78.0795 97.1648 78.0823 96.8149 78.0852C96.3485 78.0809 96.3485 78.0809 95.8726 78.0765C95.4676 78.0764 95.4676 78.0764 95.0545 78.0763C94.0899 77.8793 93.7471 77.5424 93.1644 76.7578C93.0177 76.0449 93.0177 76.0449 93.0175 75.2345C93.0146 74.9264 93.0118 74.6184 93.0088 74.301C93.0116 73.9646 93.0145 73.6282 93.0174 73.2816C93.0158 72.9262 93.0142 72.5707 93.0126 72.2044C93.0095 71.2304 93.0118 70.2567 93.0166 69.2827C93.0207 68.2631 93.0188 67.2435 93.0177 66.224C93.0169 64.5118 93.0209 62.7997 93.0277 61.0875C93.0355 59.1085 93.036 57.1295 93.0325 55.1504C93.0294 53.2461 93.0312 51.3418 93.0353 49.4374C93.037 48.6272 93.037 47.817 93.0356 47.0068C93.034 45.8755 93.0396 44.7442 93.046 43.6128C93.0447 43.2765 93.0433 42.9401 93.042 42.5935C93.0449 42.2854 93.0478 41.9774 93.0508 41.66C93.0515 41.3926 93.0522 41.1251 93.0529 40.8495C93.3029 39.2506 94.0165 38.8181 95.5687 38.8199ZM96.68 42.1875C96.68 51.1787 96.68 60.1699 96.68 69.4336C105.671 69.4336 114.662 69.4336 123.926 69.4336C123.926 60.4424 123.926 51.4511 123.926 42.1875C114.935 42.1875 105.944 42.1875 96.68 42.1875Z" fill="#1E2339"/>
<path d="M53.6133 84.082C65.8916 84.082 78.1699 84.082 90.8203 84.082C90.8203 85.5322 90.8203 86.9824 90.8203 88.4766C97.2012 88.4766 103.582 88.4766 110.156 88.4766C107.52 96.0938 107.52 96.0938 107.227 96.3867C106.578 96.4151 105.928 96.4224 105.278 96.422C105.072 96.4222 104.866 96.4225 104.654 96.4227C103.959 96.4232 103.263 96.4216 102.568 96.42C102.071 96.4199 101.575 96.4199 101.078 96.4201C99.7259 96.4202 98.3737 96.4185 97.0215 96.4164C95.61 96.4146 94.1985 96.4144 92.7869 96.4141C90.1121 96.4132 87.4372 96.4108 84.7624 96.4078C81.7179 96.4045 78.6735 96.4029 75.6291 96.4015C69.3647 96.3984 63.1003 96.3932 56.8359 96.3867C56.5087 95.2687 56.1819 94.1506 55.8552 93.0325C55.7174 92.5619 55.7174 92.5619 55.5769 92.0818C53.6133 85.3587 53.6133 85.3587 53.6133 84.082Z" fill="#8C9CD0"/>
<path d="M123.926 42.1875C125.569 42.1875 127.213 42.1875 128.906 42.1875C128.906 52.9189 128.906 63.6504 128.906 74.707C118.175 74.707 107.443 74.707 96.3867 74.707C96.3867 69.7266 96.3867 69.7266 96.6797 69.4336C97.5268 69.4057 98.3669 69.3968 99.2141 69.4003C99.4842 69.4003 99.7543 69.4003 100.033 69.4002C100.911 69.4004 101.79 69.4027 102.668 69.405C103.209 69.4054 103.75 69.4057 104.291 69.4059C106.301 69.4074 108.311 69.4115 110.321 69.4153C117.055 69.4243 117.055 69.4243 123.926 69.4336C123.926 60.4424 123.926 51.4512 123.926 42.1875Z" fill="#8B9BCE"/>
<path d="M55.7002 102.85C56.5425 103.125 56.5425 103.125 57.1285 104.004C57.195 104.642 57.195 104.642 57.1857 105.372C57.1829 105.764 57.1829 105.764 57.18 106.164C57.1751 106.436 57.1702 106.708 57.1651 106.989C57.1624 107.264 57.1598 107.54 57.1571 107.824C57.1502 108.504 57.1405 109.183 57.1285 109.863C57.3843 109.862 57.6402 109.861 57.9038 109.86C64.1239 109.834 70.344 109.815 76.5641 109.803C79.5721 109.797 82.58 109.788 85.588 109.775C88.2091 109.763 90.8302 109.756 93.4514 109.753C94.8398 109.752 96.2282 109.748 97.6166 109.74C98.9226 109.732 100.228 109.729 101.534 109.731C102.015 109.731 102.495 109.728 102.975 109.724C103.629 109.718 104.283 109.719 104.937 109.722C105.303 109.721 105.67 109.72 106.047 109.719C106.933 109.863 106.933 109.863 107.501 110.41C107.812 111.035 107.812 111.035 107.757 111.804C107.519 112.5 107.519 112.5 106.933 113.086C106.045 113.161 106.045 113.161 104.878 113.164C104.557 113.166 104.557 113.166 104.229 113.168C103.508 113.172 102.788 113.172 102.067 113.171C101.551 113.173 101.036 113.175 100.521 113.177C99.1182 113.182 97.7157 113.184 96.3132 113.184C95.1439 113.185 93.9746 113.187 92.8053 113.189C90.0475 113.194 87.2897 113.195 84.5319 113.195C81.6834 113.194 78.8351 113.2 75.9867 113.21C73.5441 113.217 71.1016 113.221 68.6591 113.22C67.1989 113.22 65.7388 113.222 64.2787 113.228C62.9059 113.234 61.5331 113.234 60.1603 113.229C59.6556 113.229 59.151 113.23 58.6463 113.234C57.9589 113.238 57.2718 113.235 56.5844 113.231C56.0067 113.231 56.0067 113.231 55.4173 113.232C54.4918 113.086 54.4918 113.086 53.9289 112.544C53.2326 111.157 53.476 109.476 53.4847 107.959C53.4788 107.597 53.473 107.235 53.4669 106.862C53.4671 106.514 53.4673 106.166 53.4675 105.808C53.467 105.49 53.4664 105.172 53.4659 104.845C53.7052 103.476 54.2974 102.822 55.7002 102.85Z" fill="#1D2239"/>
<path d="M108.985 51.8554C109.664 52.4019 110.256 53.0151 110.852 53.6498C111.012 53.8148 111.172 53.9799 111.336 54.1499C111.727 54.5543 112.114 54.9623 112.5 55.371C113.635 54.9092 114.33 54.1764 115.174 53.3019C116.818 51.6018 116.818 51.6018 118.048 51.4708C118.945 51.5624 118.945 51.5624 119.513 52.0568C119.932 52.9696 119.872 53.2473 119.531 54.1991C118.9 54.974 118.187 55.6538 117.462 56.3415C117.268 56.5305 117.074 56.7195 116.874 56.9142C116.395 57.3791 115.914 57.8411 115.43 58.3007C116.389 59.4514 117.348 60.5264 118.469 61.5233C119.336 62.3737 119.513 62.5824 119.715 63.8305C119.531 64.746 119.531 64.746 118.945 65.3319C118.02 65.4967 118.02 65.4967 116.895 65.3319C116.061 64.7469 115.4 64.0317 114.716 63.2812C114.529 63.0855 114.343 62.8899 114.151 62.6883C113.693 62.2067 113.241 61.7209 112.793 61.2304C111.495 62.3339 110.224 63.4566 108.982 64.6235C108.29 65.116 107.775 65.2499 106.934 65.3319C106.256 65.0207 106.256 65.0207 105.762 64.453C105.603 63.6737 105.603 63.6737 105.762 62.6952C106.358 61.8818 107.074 61.2177 107.813 60.5346C108.008 60.3469 108.204 60.1592 108.405 59.9658C108.888 59.5042 109.374 59.0472 109.863 58.5937C109.251 57.2536 108.267 56.3957 107.198 55.4162C106.308 54.5666 105.824 53.983 105.762 52.7343C105.982 52.0751 105.982 52.0751 106.348 51.5624C107.498 51.1789 107.884 51.3602 108.985 51.8554Z" fill="#1D2238"/>
<path d="M64.4536 118.945C65.4408 119.686 65.8665 120.524 66.2114 121.71C66.2114 123.268 65.7455 124.329 64.7282 125.5C63.6955 126.367 62.9055 126.349 61.5983 126.335C60.3203 126.208 59.3978 125.476 58.5942 124.512C58.0699 122.939 58.0648 121.528 58.7407 120.007C60.3663 118.3 62.2956 117.975 64.4536 118.945ZM61.8169 121.875C61.8169 122.165 61.8169 122.455 61.8169 122.754C62.1069 122.754 62.3969 122.754 62.6958 122.754C62.5991 122.464 62.5024 122.174 62.4028 121.875C62.2094 121.875 62.0161 121.875 61.8169 121.875Z" fill="#1D2238"/>
<path d="M104.297 118.945C105.404 120.052 105.808 120.865 105.835 122.406C105.817 123.646 105.747 124.441 104.883 125.39C103.481 126.336 102.42 126.425 100.782 126.269C99.5756 125.749 98.7995 125.065 98.1448 123.926C97.897 122.429 97.9749 121.324 98.6758 119.97C100.29 118.126 102.114 118.105 104.297 118.945ZM101.66 121.875C101.66 122.165 101.66 122.455 101.66 122.754C101.95 122.657 102.241 122.56 102.539 122.461C102.443 122.267 102.346 122.074 102.246 121.875C102.053 121.875 101.86 121.875 101.66 121.875Z" fill="#1D2238"/>
</svg>
